<?xml version="1.0" encoding="UTF-8"?>
<svg width="20px" height="20px" viewBox="0 0 20 20" version="1.1" xmlns="http://www.w3.org/2000/svg" xmlns:xlink="http://www.w3.org/1999/xlink">
    <!-- Generator: Sketch 49.3 (51167) - http://www.bohemiancoding.com/sketch -->
    <title>Slice</title>
    <desc>Created with Sketch.</desc>
    <defs/>
    <g id="Page-1" stroke="none" stroke-width="1" fill="none" fill-rule="evenodd">
        <g id="Group" transform="translate(0.000000, 2.000000)" fill="#000000">
            <path d="M11.7777778,0.222222222 C14.5775544,0.222222222 16.8811816,2.31271333 17.2569444,5.01388889 C18.8667769,5.68484667 20,7.26733333 20,9.11111111 C20,11.5578 18.00226,13.5555556 15.5555556,13.5555556 L4.44444444,13.5555556 C1.99774,13.5555556 0,11.5578 0,9.11111111 C0,7.0588 1.40499422,5.33839778 3.30555556,4.83333333 C3.72030578,3.46505111 4.94575844,2.44444444 6.44444444,2.44444444 C6.74277556,2.44444444 7.02441444,2.49521333 7.29861111,2.56944444 C8.30735911,1.16284 9.92028111,0.222222222 11.7777778,0.222222222 Z M11.7777778,1.55555556 C10.2039547,1.55555556 8.83911178,2.40466444 8.11111111,3.67361111 C7.94124795,3.96918186 7.57578119,4.08900703 7.26388889,3.95138889 C7.01006178,3.83698889 6.73701911,3.77777778 6.44444444,3.77777778 C5.43389911,3.77777778 4.61482956,4.51935111 4.47222222,5.48611111 C4.42824491,5.77020341 4.20712778,5.99411949 3.92361111,6.04166667 C2.45286711,6.28879778 1.33333333,7.56242222 1.33333333,9.11111111 C1.33333333,10.8372222 2.71833067,12.2222222 4.44444444,12.2222222 L15.5555556,12.2222222 C17.2816693,12.2222222 18.6666667,10.8372222 18.6666667,9.11111111 C18.6666667,7.70184444 17.7373484,6.51253333 16.4652778,6.125 C16.1985071,6.04420669 16.0101496,5.80598987 15.9930556,5.52777778 C15.8649664,3.30752444 14.0341169,1.55555556 11.7777778,1.55555556 Z" id="Combined-Shape"/>
            <path d="M10.6465,9.3535 C10.8417499,9.54869097 11.1582501,9.54869097 11.3535,9.3535 L13.8535,6.8535 C14.0429861,6.65731056 14.0402762,6.34545761 13.8474093,6.15259071 C13.6545424,5.95972381 13.3426894,5.9570139 13.1465,6.1465 L11.5,7.793 L11.5,3.5 C11.5,3.22385763 11.2761424,3 11,3 C10.7238576,3 10.5,3.22385763 10.5,3.5 L10.5,7.793 L8.8535,6.1465 C8.65731056,5.9570139 8.34545761,5.95972381 8.15259071,6.15259071 C7.95972381,6.34545761 7.9570139,6.65731056 8.1465,6.8535 L10.6465,9.3535 Z M13.5,10 L8.5,10 C8.22385763,10 8,10.2238576 8,10.5 C8,10.7761424 8.22385763,11 8.5,11 L13.5,11 C13.7761424,11 14,10.7761424 14,10.5 C14,10.2238576 13.7761424,10 13.5,10 Z" id="Shape" fill-rule="nonzero"/>
        </g>
    </g>
</svg>